<svg aria-hidden="true" style="position: absolute; width: 0; height: 0; overflow: hidden;" version="1.1" xmlns="http://www.w3.org/2000/svg" xmlns:xlink="http://www.w3.org/1999/xlink">
<defs>
<symbol id="icon-mail" viewBox="0 0 32 32">
<path d="M0 6.4v19.2c0 1.767 1.433 3.2 3.2 3.2h25.6c1.767 0 3.2-1.433 3.2-3.2v-19.2c0-1.767-1.433-3.2-3.2-3.2h-25.6c-1.767 0-3.2 1.433-3.2 3.2zM28.8 9.39v16.21h-25.6v-16.21l12.8 8.533 12.8-8.533zM27.516 6.4l-11.516 7.677-11.516-7.677h23.031z"></path>
</symbol>
<symbol id="icon-home" viewBox="0 0 32 32">
<path d="M3.2 16.469h-3.2l14.869-14.869c0.625-0.625 1.638-0.625 2.263 0l14.869 14.869h-3.2v12.8c0 0.884-0.716 1.6-1.6 1.6h-22.4c-0.884 0-1.6-0.716-1.6-1.6v-12.8zM6.4 27.669h6.4v-8h6.4v8h6.4v-13.075l-9.6-9.6-9.6 9.6v13.075z"></path>
</symbol>
<symbol id="icon-shuffle" viewBox="0 0 32 32">
<path d="M13.18 10.34l-10.36-10.34-2.82 2.82 10.34 10.34 2.84-2.82zM21 0l4.080 4.080-25.080 25.1 2.82 2.82 25.1-25.080 4.080 4.080v-11h-11zM18.84 21.64l2.82-2.82 6.26 6.26 4.080-4.080v11h-11l4.1-4.1-6.26-6.26z"></path>
</symbol>
</defs>
</svg>
